<svg viewBox="0 0 152 53" xmlns="http://www.w3.org/2000/svg"><g fill="none" fill-rule="evenodd"><g><path fill="#e3e2e3" d="m5 20h110l29.5 5 3.5 5 1 10-9.04 5.3-6.53-.83-1.3-8.807-6.17-5.463-5.73-.001-4.48.99-3.08 3.93-1.85 9.737-70.41.323.03-7.693-3.48-5-5.284-2.77-3.03.077-6.146 2.643-3.474 4.627-.827 6.24-12.504-3.839-1.1-6.568 1.401-.883z"/><path d="m35.28 20.583c.004.002 75.879 0 75.879 0l31.903 5.293 4.549 4.525v9.06l-9.563 4.761h-3.9c.37-1.173.566-2.422.566-3.714 0-6.889-5.632-12.495-12.557-12.495-6.925 0-12.557 5.605-12.557 12.495 0 1.292.198 2.541.566 3.714h-68.32c.37-1.173.566-2.422.566-3.714 0-6.889-5.632-12.495-12.557-12.495-6.925 0-12.557 5.605-12.557 12.495 0 .403.023 2.802.061 3.195l-10.965-4.581v-18.541h28.888m36.31-16.205v12.831h-43.925l9.497-8.541c2.635-2.37 7.641-4.291 11.188-4.291h23.24m3.394 0h3.334l25.793 12.831h-29.13v-12.831m47.17 45.25c-5.05 0-9.163-4.09-9.163-9.118 0-5.03 4.112-9.117 9.163-9.117 5.05 0 9.165 4.088 9.165 9.117 0 5.03-4.111 9.118-9.165 9.118m-92.31 0c-5.05 0-9.165-4.09-9.165-9.118 0-5.03 4.111-9.117 9.165-9.117 5.05 0 9.163 4.088 9.163 9.117 0 5.03-4.112 9.118-9.163 9.118m-10.587-2.207c1.117 1.557 6.66 5.582 9.59 5.582 4.278 0 9.05-2.141 11.323-5.403h71.65c2.269 3.259 6.05 5.403 10.326 5.403 4.276 0 8.06-2.141 10.326-5.403h5.962c.263 0 .524-.062.759-.179l10.858-5.405c.575-.286.938-.871.938-1.511v-10.804c0-.449-.179-.877-.497-1.193l-5.429-5.405c-.251-.247-.572-.414-.919-.472l-32.33-5.361-32.35-16.09c-.23-.112 0 0 0 0-.417-.096-3.434-.173-6.756-.173h-32.542l-12.454 10.984c-2.484 2.191-4.693 4.375-4.693 4.375l.194-.407c-.107.225-.29.948-.29.948l-19.565.178-.371 23.432c.002.804.572 1.496 1.364 1.654 0 0 14.03 4.04 14.902 5.255" fill="#4a4a4a"/></g><path fill="#4a4a4a" d="m66 23h6v2h-6z"/></g></svg>