<svg viewBox="0 0 152 53" xmlns="http://www.w3.org/2000/svg"><g fill="none" fill-rule="evenodd"><path fill="#e3e2e3" d="m5 20h110l29.5 5 3.5 5 1 10-9.04 5.3-6.53-.83-1.3-8.807-6.17-5.463-5.73-.001-4.48.99-3.08 3.93-1.85 9.737-70.41.323.03-7.693-3.48-5-5.284-2.77-3.03.077-6.146 2.643-3.474 4.627-.827 6.24-12.504-3.839-1.1-6.568 1.401-.883z"/><g fill="#4a4a4a"><path d="m34.951 20.401c.004.002 76.12 0 76.12 0l32.01 5.292 4.564 4.524v9.06l-9.594 4.76h-3.913c.371-1.173.568-2.422.568-3.714 0-6.888-5.65-12.494-12.597-12.494-6.947 0-12.597 5.604-12.597 12.494 0 1.292.199 2.541.568 3.714h-68.54c.371-1.173.568-2.422.568-3.714 0-6.888-5.65-12.494-12.597-12.494-6.947 0-12.597 5.604-12.597 12.494 0 .403.023.802.061 1.195l-11-2.58v-18.539h28.981m36.431-16.203v12.83h-44.07l14.313-12.83h29.753m3.405 0h3.345l25.876 12.83h-29.22v-12.83m47.32 45.24c-5.067 0-9.192-4.09-9.192-9.117 0-5.03 4.125-9.116 9.192-9.116 5.07 0 9.194 4.088 9.194 9.116 0 5.03-4.124 9.117-9.194 9.117m-92.6 0c-5.07 0-9.194-4.09-9.194-9.117 0-5.03 4.124-9.116 9.194-9.116 5.067 0 9.192 4.088 9.192 9.116 0 5.03-4.125 9.117-9.192 9.117m-11.621-4.298c1.905 4.502 6.396 7.672 11.621 7.672 4.292 0 8.08-2.141 10.359-5.402h71.884c2.276 3.259 6.069 5.402 10.359 5.402 4.29 0 8.08-2.141 10.359-5.402h5.981c.264 0 .526-.062.761-.179l10.893-5.404c.577-.286.941-.871.941-1.511v-10.803c0-.449-.18-.877-.499-1.193l-5.446-5.404c-.252-.247-.574-.414-.922-.472l-32.433-5.36-32.454-16.09c-.231-.112-.493-.173-.757-.173h-38.37c-.568 0-1.1.283-1.417.751l-15.889 14.199c-.088.137-.147.268-.195.407-.071.241-.096.387-.096.541l-19.627.178-.373 23.429c.002.804.574 1.496 1.368 1.654l13.95 3.163"/><path d="m40 23h6v2h-6z"/><path d="m76 23h6v2h-6z"/></g></g></svg>