<svg viewBox="0 0 41 42" xmlns="http://www.w3.org/2000/svg" xmlns:xlink="http://www.w3.org/1999/xlink"><defs><path id="0" d="m0 42h41v-42h-41z"/><mask id="1" fill="#fff"><use xlink:href="#0"/></mask></defs><g fill="#4a4a4a" fill-rule="evenodd"><path d="m9.681 0c-.617 0-1.139.501-1.139 1.093v5.523c0 .593.522 1.093 1.139 1.093.617 0 1.139-.501 1.139-1.093v-5.523c0-.004 0-.007 0-.012-.007-.587-.524-1.082-1.138-1.082"/><path d="m31.889 0c-.617 0-1.139.501-1.139 1.093v5.523c0 .593.522 1.093 1.139 1.093.617 0 1.139-.501 1.139-1.093v-5.523c0-.004 0-.007 0-.012-.007-.587-.524-1.082-1.138-1.082"/><path mask="url(#1)" d="m14.236 5.753h13.1v-1.723h-13.1z"/><path d="m38.722 36.994c0 1.029-.899 2.129-1.822 2.129h.569-32.8c-.921 0-1.822-1.219-1.822-2.128v-22.04-.575h35.875v22.611m-.569-34.12h-2.278v2.301h1.708c.569 0 1.139.699 1.139 1.438v5.466h-.569-35.31v-5.466c0-1 .754-1.438 1.139-1.438h1.708v-2.301h-1.708c-1.616 0-3.417 1.536-3.417 3.74v30.378c0 2.194 2.069 4.43 4.1 4.43h32.8c2.112 0 3.531-2.29 3.531-4.43v-30.378c0-2.762-1.171-3.74-2.847-3.74" mask="url(#1)"/></g></svg>